<?xml version="1.0" encoding="utf-8"?>
<!-- Generator: Adobe Illustrator 15.1.0, SVG Export Plug-In  -->
<!DOCTYPE svg PUBLIC "-//W3C//DTD SVG 1.1//EN" "http://www.w3.org/Graphics/SVG/1.1/DTD/svg11.dtd" [
	<!ENTITY ns_flows "http://ns.adobe.com/Flows/1.0/">
]>
<svg version="1.1"
	 xmlns="http://www.w3.org/2000/svg" xmlns:xlink="http://www.w3.org/1999/xlink" xmlns:a="http://ns.adobe.com/AdobeSVGViewerExtensions/3.0/"
	 x="0px" y="0px" width="57px" height="57px" viewBox="-3.527 -5.005 57 57" enable-background="new -3.527 -5.005 57 57"
	 xml:space="preserve">
<defs>
</defs>
<path fill="#141414" d="M8.379,22.647c-1.337,0-2.42,1.083-2.42,2.42V36.76c0,1.337,1.083,2.421,2.42,2.421h4.193
	c1.337,0,2.42-1.084,2.42-2.421V25.067c0-1.337-1.083-2.42-2.42-2.42H8.379z"/>
<path fill="#141414" d="M22.379,28.647c-1.337,0-2.42,1.083-2.42,2.42v5.693c0,1.337,1.083,2.421,2.42,2.421h4.193
	c1.337,0,2.42-1.084,2.42-2.421v-5.693c0-1.337-1.083-2.42-2.42-2.42H22.379z"/>
<path fill="#141414" d="M40.572,15.647h-4.193c-1.337,0-2.42,1.083-2.42,2.42V36.76c0,1.337,1.083,2.421,2.42,2.421h4.193
	c1.337,0,2.42-1.084,2.42-2.421V18.067C42.992,16.73,41.909,15.647,40.572,15.647z"/>
<path fill="#141414" d="M47.884,42.473H1.992C0.892,42.473,0,43.365,0,44.465v0.14c0,1.101,0.892,1.992,1.992,1.992h45.892
	c1.1,0,1.992-0.892,1.992-1.992v-0.14C49.876,43.365,48.983,42.473,47.884,42.473z"/>
<path fill="#141414" d="M5.232,17.094l5.151-4.981L23.84,19.37c0.149,0.081,0.313,0.12,0.475,0.12c0.239,0,0.476-0.086,0.663-0.252
	l15.373-13.62l1.494,1.505c0.032,0.031,0.085,0.047,0.142,0.046c0.103-0.004,0.271-0.069,0.431-0.229
	c0.136-0.141,0.203-0.316,0.29-0.53c0,0,1.344-3.684,2.196-5.948c0.013-0.04,0.065-0.253-0.05-0.377
	c-0.054-0.062-0.17-0.12-0.4-0.058c-0.013,0.001-0.027,0.007-0.039,0.009l-6.048,2.261c-0.13,0.051-0.249,0.111-0.349,0.211
	c-0.145,0.143-0.279,0.389-0.197,0.537c0.036,0.066,0.123,0.149,0.123,0.149l0.996,1.003L24.174,17.278l-13.484-7.272
	c-0.383-0.208-0.855-0.142-1.17,0.161l-5.678,5.49c-0.396,0.384-0.407,1.017-0.023,1.414C4.201,17.467,4.834,17.477,5.232,17.094z"
	/>
</svg>
