<?xml version="1.0" encoding="utf-8"?>
<!-- Generator: Adobe Illustrator 15.1.0, SVG Export Plug-In  -->
<!DOCTYPE svg PUBLIC "-//W3C//DTD SVG 1.1//EN" "http://www.w3.org/Graphics/SVG/1.1/DTD/svg11.dtd" [
	<!ENTITY ns_flows "http://ns.adobe.com/Flows/1.0/">
]>
<svg version="1.1"
	 xmlns="http://www.w3.org/2000/svg" xmlns:xlink="http://www.w3.org/1999/xlink" xmlns:a="http://ns.adobe.com/AdobeSVGViewerExtensions/3.0/"
	 x="0px" y="0px" width="57px" height="57px" viewBox="-3 -7.861 57 57" enable-background="new -3 -7.861 57 57"
	 xml:space="preserve">
<defs>
</defs>
<path fill="#141414" d="M17.371,10.011c-0.098-0.006-0.197-0.008-0.296-0.008l-0.232,0.002c-9.226,0-16.623,5.51-16.838,12.532
	C0,22.613,0,22.7,0,22.775c0.01,4.024,2.486,7.848,6.65,10.31c-0.289,0.514-0.76,1.261-1.369,2.173
	c-0.411,0.63-0.812,1.256-1.14,1.832l-0.118,0.222c-0.258,0.482-0.5,0.939-0.528,1.556c-0.114,0.611,0.421,1.532,1.143,1.686
	l0.099,0.024c0.143,0.031,0.271,0.046,0.414,0.046h0.016l0.015-0.001c0.788-0.05,1.369-0.357,2.105-0.747l0.385-0.2
	c0.887-0.488,1.935-1.13,2.949-1.75c0.494-0.302,0.985-0.603,1.455-0.884c0.75-0.453,1.393-0.823,1.851-1.062
	c0.246-0.122,0.454-0.218,0.592-0.271c0.014-0.005,0.024-0.01,0.037-0.014c0.736,0.09,1.466,0.143,2.228,0.161l0.512,0.005
	c9.228-0.002,16.623-5.513,16.837-12.537c0.005-0.075,0.005-0.154,0.005-0.24C34.073,15.961,26.703,10.219,17.371,10.011z
	 M9.106,34.472l0.096-0.18c0.271-0.503,0.527-0.978,0.563-1.657c0.042-0.446-0.212-1.224-0.895-1.541
	c-3.793-1.954-6.054-5.064-6.046-8.319l0.002-0.145c0.058-5.407,6.346-9.807,14.017-9.807c0.152,0,0.288,0.002,0.432,0.009
	c7.674,0.166,14.104,4.86,14.041,10.255v0.168c-0.063,5.395-6.349,9.781-14.021,9.781c-0.147,0-0.299-0.001-0.454-0.005
	c-0.7-0.014-1.409-0.067-2.045-0.146c-0.108-0.028-0.277-0.028-0.329-0.027c-0.769,0.052-1.314,0.344-2.004,0.713l-0.446,0.237
	c-0.824,0.459-1.796,1.054-2.768,1.648c-0.402,0.248-0.807,0.495-1.201,0.733C8.421,35.618,8.801,35.022,9.106,34.472z"/>
<path fill="#141414" d="M46.339,23.116l-0.106-0.199c-0.269-0.472-0.61-1.003-0.963-1.541c-0.484-0.729-0.867-1.336-1.112-1.762
	c3.505-2.099,5.586-5.337,5.594-8.745c0-0.063,0-0.139-0.003-0.194C49.564,4.688,43.278,0,35.437,0h-0.165
	c-0.092,0-0.188,0.001-0.267,0.004C28.691,0.145,23.223,3.314,21.394,7.89l-0.238,0.595l0.635,0.083
	c0.518,0.068,1.026,0.149,1.527,0.252L23.705,8.9l0.164-0.358c1.606-3.479,6.108-5.89,11.22-5.998
	c0.108-0.005,0.224-0.006,0.348-0.006c6.442,0,11.724,3.683,11.772,8.21l0.003,0.122c0.006,2.721-1.891,5.323-5.055,6.953
	c-0.63,0.294-0.853,0.991-0.813,1.366c0.031,0.604,0.247,1.011,0.476,1.439l0.093,0.174c0.203,0.364,0.45,0.76,0.712,1.166
	c-0.264-0.159-0.529-0.322-0.797-0.486c-0.798-0.489-1.593-0.976-2.285-1.362l-0.362-0.19c-0.593-0.317-1.062-0.568-1.76-0.615
	c-0.104,0-0.194,0.013-0.207,0.015c-0.17,0.021-0.347,0.03-0.522,0.041l-0.831,0.06l0.109,0.726c0.03,0.186,0.061,0.371,0.073,0.563
	l0.044,0.23l-0.031,1.037l0.555-0.045c0.253-0.02,0.507-0.042,0.764-0.072v0.004c0.121,0.047,0.291,0.125,0.486,0.225
	c0.424,0.22,0.977,0.539,1.571,0.899c0.398,0.238,0.817,0.495,1.237,0.753c0.854,0.521,1.736,1.062,2.498,1.481l0.328,0.171
	c0.624,0.328,1.117,0.588,1.793,0.632l0.033,0.001c0.129,0,0.242-0.014,0.316-0.033l0.101-0.02c0.683-0.151,1.16-0.977,1.065-1.457
	C46.771,23.929,46.562,23.534,46.339,23.116z"/>
</svg>
