<?xml version="1.0" encoding="utf-8"?>
<!-- Generator: Adobe Illustrator 15.1.0, SVG Export Plug-In  -->
<!DOCTYPE svg PUBLIC "-//W3C//DTD SVG 1.1//EN" "http://www.w3.org/Graphics/SVG/1.1/DTD/svg11.dtd" [
	<!ENTITY ns_flows "http://ns.adobe.com/Flows/1.0/">
]>
<svg version="1.1"
	 xmlns="http://www.w3.org/2000/svg" xmlns:xlink="http://www.w3.org/1999/xlink" xmlns:a="http://ns.adobe.com/AdobeSVGViewerExtensions/3.0/"
	 x="0px" y="0px" width="57px" height="57px" viewBox="-3.436 -6.934 57 57" enable-background="new -3.436 -6.934 57 57"
	 xml:space="preserve">
<defs>
</defs>
<path fill="#141414" d="M29.625,27.81l-2.188-0.307c-0.066-1.496-0.389-2.934-0.959-4.283l1.816-1.37
	c0.117-0.09,0.195-0.224,0.216-0.369c0.021-0.147-0.019-0.297-0.108-0.416l-2.527-3.343c-0.089-0.118-0.222-0.195-0.369-0.217
	c-0.149-0.021-0.296,0.019-0.414,0.108l-1.676,1.267c-1.11-1.024-2.378-1.828-3.78-2.394l0.299-2.145
	c0.021-0.147-0.019-0.296-0.107-0.415c-0.089-0.118-0.222-0.195-0.368-0.217l-4.147-0.576c-0.154-0.021-0.297,0.018-0.415,0.108
	c-0.118,0.088-0.195,0.222-0.217,0.369l-0.275,1.99c-1.547,0.065-3.031,0.405-4.422,1.013l-1.265-1.671
	c-0.186-0.246-0.535-0.294-0.783-0.109l-3.34,2.523c-0.118,0.09-0.196,0.223-0.217,0.369c-0.021,0.147,0.019,0.296,0.108,0.415
	l1.196,1.585c-1.037,1.148-1.835,2.444-2.38,3.863L1.209,23.3c-0.148-0.021-0.295,0.019-0.414,0.107
	c-0.117,0.09-0.196,0.222-0.216,0.369l-0.574,4.146c-0.043,0.307,0.17,0.588,0.476,0.631l2.025,0.281
	c0.091,1.514,0.448,2.973,1.067,4.352l-1.763,1.332c-0.244,0.186-0.295,0.535-0.107,0.783l2.524,3.34
	c0.186,0.246,0.536,0.293,0.781,0.107l1.722-1.299c1.11,0.979,2.394,1.76,3.754,2.287l-0.314,2.285
	c-0.043,0.307,0.172,0.588,0.477,0.631l4.146,0.576c0.025,0.004,0.052,0.006,0.078,0.006c0.274,0,0.514-0.203,0.553-0.482
	l0.313-2.223c1.466-0.084,2.882-0.42,4.219-1l1.428,1.889c0.188,0.248,0.538,0.293,0.783,0.109l3.343-2.521
	c0.119-0.088,0.196-0.223,0.217-0.369c0.021-0.148-0.019-0.297-0.107-0.416l-1.367-1.809c0.984-1.088,1.757-2.32,2.302-3.674
	l2.34,0.324c0.296,0.037,0.588-0.17,0.632-0.477l0.577-4.146C30.144,28.134,29.931,27.851,29.625,27.81z M18.207,32.358
	c-0.94,0.711-2.06,1.088-3.235,1.088c-1.703,0-3.269-0.777-4.294-2.135c-1.785-2.363-1.314-5.738,1.052-7.526
	c0.94-0.711,2.06-1.086,3.234-1.086c1.703,0,3.266,0.776,4.289,2.13C21.04,27.194,20.571,30.573,18.207,32.358z"/>
<path fill="#141414" d="M49.606,10.507l-0.849-3.136c-0.038-0.143-0.133-0.266-0.262-0.339s-0.278-0.093-0.425-0.054l-1.468,0.4
	c-0.491-1.01-1.14-1.91-1.935-2.688l0.787-1.37c0.152-0.268,0.061-0.609-0.207-0.764l-2.813-1.615
	c-0.128-0.074-0.281-0.093-0.426-0.055c-0.143,0.038-0.265,0.134-0.338,0.263L40.95,2.41c-1.078-0.369-2.19-0.519-3.319-0.527
	l-0.399-1.471c-0.081-0.298-0.385-0.472-0.686-0.394l-3.131,0.85c-0.298,0.081-0.475,0.388-0.394,0.686l0.375,1.385
	c-1.025,0.514-1.932,1.183-2.703,1.995l-1.33-0.765c-0.266-0.153-0.608-0.063-0.763,0.207l-1.62,2.813
	c-0.074,0.129-0.094,0.282-0.055,0.425c0.039,0.144,0.134,0.266,0.263,0.339l1.286,0.736c-0.345,1.071-0.503,2.172-0.47,3.283
	l-1.555,0.424c-0.297,0.082-0.473,0.389-0.393,0.687l0.847,3.127c0.038,0.144,0.132,0.265,0.261,0.339s0.283,0.094,0.426,0.055
	l1.514-0.41c0.501,0.968,1.163,1.854,1.944,2.603l-0.841,1.467c-0.154,0.269-0.062,0.609,0.206,0.764l2.815,1.618
	c0.129,0.074,0.282,0.095,0.425,0.055c0.143-0.039,0.265-0.134,0.338-0.263l0.813-1.419c1.032,0.334,2.064,0.482,3.171,0.476
	l0.455,1.68c0.067,0.249,0.293,0.413,0.539,0.413c0.049,0,0.098-0.007,0.146-0.021l3.133-0.844c0.144-0.038,0.266-0.132,0.34-0.261
	s0.094-0.282,0.055-0.425l-0.434-1.601c0.968-0.485,1.835-1.117,2.588-1.884l1.504,0.861c0.269,0.151,0.608,0.063,0.764-0.206
	l1.618-2.813c0.074-0.128,0.094-0.28,0.055-0.425c-0.038-0.143-0.132-0.265-0.261-0.339l-1.396-0.8
	c0.358-1.041,0.534-2.114,0.527-3.203l1.604-0.436C49.511,11.111,49.687,10.805,49.606,10.507z M41.308,13.692
	c-0.537,0.938-1.406,1.609-2.449,1.892c-0.347,0.094-0.703,0.142-1.059,0.142c-1.818,0-3.421-1.228-3.896-2.985
	c-0.58-2.146,0.695-4.366,2.847-4.95c0.346-0.094,0.702-0.142,1.058-0.142c1.814,0,3.413,1.227,3.887,2.983
	C41.979,11.671,41.841,12.759,41.308,13.692z"/>
</svg>
