<?xml version="1.0" encoding="utf-8"?>
<!-- Generator: Adobe Illustrator 15.1.0, SVG Export Plug-In  -->
<!DOCTYPE svg PUBLIC "-//W3C//DTD SVG 1.1//EN" "http://www.w3.org/Graphics/SVG/1.1/DTD/svg11.dtd" [
	<!ENTITY ns_flows "http://ns.adobe.com/Flows/1.0/">
]>
<svg version="1.1"
	 xmlns="http://www.w3.org/2000/svg" xmlns:xlink="http://www.w3.org/1999/xlink" xmlns:a="http://ns.adobe.com/AdobeSVGViewerExtensions/3.0/"
	 x="0px" y="0px" width="353px" height="72px" viewBox="-2.797 -4.826 353 72" enable-background="new -2.797 -4.826 353 72"
	 xml:space="preserve">
<defs>
</defs>
<rect y="57.247" fill="#FFFFFF" width="347.666" height="4.521"/>
<path fill="#FFFFFF" d="M57.504,51.112h-7.702l0.255-5.283c-2.928,3.819-6.365,6.301-10.757,6.301c-6.302,0-8.911-4.138-8.02-10.693
	l3.373-24.06h8.912l-3.183,22.787c-0.509,3.692,0.445,4.774,2.482,4.774c2.864,0,5.347-2.865,7.447-6.047l2.992-21.514h8.911
	L57.504,51.112z"/>
<path fill="#FFFFFF" d="M74.434,42.519c-0.254,1.783,0.255,2.419,1.337,2.419c0.573,0,1.209-0.191,1.846-0.446l1.146,6.429
	c-1.782,0.764-3.883,1.209-5.919,1.209c-5.347,0-8.211-3.31-7.32-9.547l5.474-38.637l8.975-1.019L74.434,42.519z"/>
<path fill="#FFFFFF" d="M91.174,42.519c-0.254,1.783,0.254,2.419,1.337,2.419c0.573,0,1.209-0.191,1.846-0.446l1.146,6.429
	c-1.782,0.764-3.882,1.209-5.919,1.209c-5.346,0-8.211-3.31-7.32-9.547l5.474-38.637l8.975-1.019L91.174,42.519z"/>
<path fill="#FFFFFF" d="M135.856,51.112h-9.675l-1.082-9.866h-13.749l-3.755,9.866h-9.611l19.477-44.046h11.267L135.856,51.112z
	 M124.335,34.308l-2.292-20.75l-8.02,20.75H124.335z"/>
<path fill="#FFFFFF" d="M164.69,51.112h-7.702l0.254-5.283c-2.928,3.819-6.365,6.301-10.757,6.301
	c-6.302,0-8.912-4.138-8.021-10.693l3.374-24.06h8.911l-3.183,22.787c-0.509,3.692,0.445,4.774,2.482,4.774
	c2.864,0,5.347-2.865,7.447-6.047l2.991-21.514h8.912L164.69,51.112z"/>
<path fill="#FFFFFF" d="M205.435,3.946l-6.62,47.166h-7.893l0.063-5.028c-2.164,3.374-5.538,6.047-10.057,6.047
	c-7.129,0-10.63-5.219-10.63-13.558c0-9.102,4.265-22.214,16.294-22.214c3.31,0,5.919,1.464,7.702,3.501l2.355-16.932L205.435,3.946
	z M179.592,38.764c0,4.965,1.655,6.62,4.201,6.62c3.119,0,5.538-2.928,7.829-6.556l1.847-12.921
	c-1.337-1.909-2.865-2.864-5.22-2.864C181.502,23.042,179.592,32.844,179.592,38.764z"/>
<polygon fill="#FFFFFF" points="214.918,51.112 206.006,51.112 210.716,17.377 219.628,17.377 "/>
<path fill="#FFFFFF" d="M222.237,5.538c-0.382,2.864-2.801,5.029-5.919,5.029c-3.31,0-5.22-2.419-4.837-5.538
	C211.862,2.164,214.345,0,217.463,0C220.773,0,222.683,2.419,222.237,5.538z"/>
<path fill="#FFFFFF" d="M252.917,25.46c0,9.42-10.82,12.221-21.705,13.303c0.19,4.901,2.737,6.556,6.301,6.556
	c2.928,0,5.602-1.019,8.72-3.119l3.31,5.474c-3.691,2.673-8.083,4.456-13.112,4.456c-9.484,0-14.258-5.602-14.258-14.13
	c0-9.23,4.838-21.642,18.713-21.642C248.843,16.358,252.917,20.496,252.917,25.46z M243.879,25.906c0-1.527-0.828-3.373-3.755-3.373
	c-5.22,0-7.638,5.41-8.466,10.566C240.377,32.334,243.879,29.471,243.879,25.906z"/>
<path fill="#FFFFFF" d="M285.696,26.733l-3.437,24.378h-8.911l3.31-22.596c0.573-3.946-0.7-4.71-2.673-4.71
	c-2.673,0-5.601,3.564-8.083,8.338l-2.61,18.968h-8.912l4.711-33.735h7.701l-0.254,6.11c2.928-4.265,7.32-7.129,11.394-7.129
	C283.533,16.358,286.588,20.305,285.696,26.733z"/>
<path fill="#FFFFFF" d="M318.158,20.496l-4.455,5.283c-1.911-1.719-3.756-2.418-6.047-2.418c-7.256,0-9.166,8.784-9.166,14.767
	c0,5.029,2.228,6.748,5.665,6.748c2.546,0,4.456-0.828,6.938-2.419l3.373,5.92c-3.373,2.355-7.065,3.755-11.33,3.755
	c-8.848,0-13.94-5.538-13.94-14.385c0-8.784,5.028-21.387,18.395-21.387C311.792,16.358,315.358,17.758,318.158,20.496z"/>
<path fill="#FFFFFF" d="M347.627,25.46c0,9.42-10.819,12.221-21.704,13.303c0.19,4.901,2.737,6.556,6.302,6.556
	c2.928,0,5.602-1.019,8.72-3.119l3.31,5.474c-3.691,2.673-8.083,4.456-13.111,4.456c-9.484,0-14.258-5.602-14.258-14.13
	c0-9.23,4.837-21.642,18.713-21.642C343.554,16.358,347.627,20.496,347.627,25.46z M338.59,25.906c0-1.527-0.828-3.373-3.756-3.373
	c-5.22,0-7.639,5.41-8.466,10.566C335.088,32.334,338.59,29.471,338.59,25.906z"/>
<polygon fill="#FFFFFF" points="16.078,5.065 6.499,5.065 0,52.43 9.715,52.43 12.328,33.536 26.13,33.536 27.068,26.367 
	13.333,26.367 15.142,13.234 15.137,13.247 "/>
<path fill="#FFFFFF" d="M16.078,5.065l-0.941,8.181l0.005-0.012c0,0,12.805-0.146,15.895-0.727
	c8.417-1.583,10.917-7.442,10.917-7.442H16.078z"/>
</svg>
