<?xml version="1.0" encoding="utf-8"?>
<!-- Generator: Adobe Illustrator 15.1.0, SVG Export Plug-In  -->
<!DOCTYPE svg PUBLIC "-//W3C//DTD SVG 1.1//EN" "http://www.w3.org/Graphics/SVG/1.1/DTD/svg11.dtd" [
	<!ENTITY ns_flows "http://ns.adobe.com/Flows/1.0/">
]>
<svg version="1.1"
	 xmlns="http://www.w3.org/2000/svg" xmlns:xlink="http://www.w3.org/1999/xlink" xmlns:a="http://ns.adobe.com/AdobeSVGViewerExtensions/3.0/"
	 x="0px" y="0px" width="364px" height="87px" viewBox="-9.797 -4.826 364 87" enable-background="new -9.797 -4.826 364 87"
	 xml:space="preserve">
<defs>
</defs>
<rect y="57.247" fill="#E70E48" width="347.666" height="4.521"/>
<path fill="#231F20" d="M57.504,51.112h-7.702l0.255-5.283c-2.928,3.819-6.365,6.301-10.757,6.301c-6.302,0-8.911-4.138-8.02-10.693
	l3.373-24.06h8.912l-3.183,22.787c-0.509,3.692,0.445,4.774,2.482,4.774c2.864,0,5.347-2.865,7.447-6.047l2.992-21.514h8.911
	L57.504,51.112z"/>
<path fill="#231F20" d="M74.434,42.519c-0.254,1.783,0.255,2.419,1.337,2.419c0.573,0,1.209-0.191,1.846-0.446l1.146,6.429
	c-1.782,0.764-3.883,1.209-5.919,1.209c-5.347,0-8.211-3.31-7.32-9.547l5.474-38.637l8.975-1.019L74.434,42.519z"/>
<path fill="#231F20" d="M91.174,42.519c-0.254,1.783,0.254,2.419,1.337,2.419c0.573,0,1.209-0.191,1.846-0.446l1.146,6.429
	c-1.782,0.764-3.882,1.209-5.919,1.209c-5.346,0-8.211-3.31-7.32-9.547l5.474-38.637l8.975-1.019L91.174,42.519z"/>
<path fill="#231F20" d="M135.856,51.112h-9.675l-1.082-9.866h-13.749l-3.755,9.866h-9.611l19.477-44.046h11.267L135.856,51.112z
	 M124.335,34.308l-2.292-20.75l-8.02,20.75H124.335z"/>
<path fill="#231F20" d="M164.69,51.112h-7.702l0.254-5.283c-2.928,3.819-6.365,6.301-10.757,6.301
	c-6.302,0-8.912-4.138-8.021-10.693l3.374-24.06h8.911l-3.183,22.787c-0.509,3.692,0.445,4.774,2.482,4.774
	c2.864,0,5.347-2.865,7.447-6.047l2.991-21.514h8.912L164.69,51.112z"/>
<path fill="#231F20" d="M205.435,3.946l-6.62,47.166h-7.893l0.063-5.028c-2.164,3.374-5.538,6.047-10.057,6.047
	c-7.129,0-10.63-5.219-10.63-13.558c0-9.102,4.265-22.214,16.294-22.214c3.31,0,5.919,1.464,7.702,3.501l2.355-16.932L205.435,3.946
	z M179.592,38.764c0,4.965,1.655,6.62,4.201,6.62c3.119,0,5.538-2.928,7.829-6.556l1.847-12.921
	c-1.337-1.909-2.865-2.864-5.22-2.864C181.502,23.042,179.592,32.844,179.592,38.764z"/>
<polygon fill="#231F20" points="214.918,51.112 206.006,51.112 210.716,17.377 219.628,17.377 "/>
<path fill="#231F20" d="M222.237,5.538c-0.382,2.864-2.801,5.029-5.919,5.029c-3.31,0-5.22-2.419-4.837-5.538
	C211.862,2.164,214.345,0,217.463,0C220.773,0,222.683,2.419,222.237,5.538z"/>
<path fill="#231F20" d="M252.917,25.46c0,9.42-10.82,12.221-21.705,13.303c0.19,4.901,2.737,6.556,6.301,6.556
	c2.928,0,5.602-1.019,8.72-3.119l3.31,5.474c-3.691,2.673-8.083,4.456-13.112,4.456c-9.484,0-14.258-5.602-14.258-14.13
	c0-9.23,4.838-21.642,18.713-21.642C248.843,16.358,252.917,20.496,252.917,25.46z M243.879,25.906c0-1.527-0.828-3.373-3.755-3.373
	c-5.22,0-7.638,5.41-8.466,10.566C240.377,32.334,243.879,29.471,243.879,25.906z"/>
<path fill="#231F20" d="M285.696,26.733l-3.437,24.378h-8.911l3.31-22.596c0.573-3.946-0.7-4.71-2.673-4.71
	c-2.673,0-5.601,3.564-8.083,8.338l-2.61,18.968h-8.912l4.711-33.735h7.701l-0.254,6.11c2.928-4.265,7.32-7.129,11.394-7.129
	C283.533,16.358,286.588,20.305,285.696,26.733z"/>
<path fill="#231F20" d="M318.158,20.496l-4.455,5.283c-1.911-1.719-3.756-2.418-6.047-2.418c-7.256,0-9.166,8.784-9.166,14.767
	c0,5.029,2.228,6.748,5.665,6.748c2.546,0,4.456-0.828,6.938-2.419l3.373,5.92c-3.373,2.355-7.065,3.755-11.33,3.755
	c-8.848,0-13.94-5.538-13.94-14.385c0-8.784,5.028-21.387,18.395-21.387C311.792,16.358,315.358,17.758,318.158,20.496z"/>
<path fill="#231F20" d="M347.627,25.46c0,9.42-10.819,12.221-21.704,13.303c0.19,4.901,2.737,6.556,6.302,6.556
	c2.928,0,5.602-1.019,8.72-3.119l3.31,5.474c-3.691,2.673-8.083,4.456-13.111,4.456c-9.484,0-14.258-5.602-14.258-14.13
	c0-9.23,4.837-21.642,18.713-21.642C343.554,16.358,347.627,20.496,347.627,25.46z M338.59,25.906c0-1.527-0.828-3.373-3.756-3.373
	c-5.22,0-7.639,5.41-8.466,10.566C335.088,32.334,338.59,29.471,338.59,25.906z"/>
<path d="M1.29,73.839h-0.6v-6.847h0.6V73.839z M2.04,70.141l3.008,3.698H4.318L1.33,70.171l2.858-3.179h0.689L2.04,70.141z"/>
<path d="M7.26,73.839h-0.6v-6.847h0.6V73.839z"/>
<path d="M14.487,73.839h-0.79l-3.228-6.187c0.03,0.47,0.08,1.129,0.08,2.358v3.828H9.98v-6.847h0.77l3.248,6.188
	c-0.02-0.29-0.08-1.14-0.08-2.029v-4.158h0.569V73.839z"/>
<path d="M22.347,70.421c0,2.249-1.1,3.528-2.798,3.528c-1.649,0-2.789-1.239-2.789-3.519c0-2.259,1.149-3.548,2.789-3.548
	C21.218,66.883,22.347,68.112,22.347,70.421z M17.39,70.431c0,2.049,0.89,3.009,2.159,3.009c1.339,0,2.168-0.96,2.168-3.019
	c0-2.079-0.849-3.028-2.168-3.028C18.259,67.393,17.39,68.352,17.39,70.431z"/>
<path d="M25.979,66.992c1.589,0,3.188,0.55,3.188,3.368c0,2.839-1.669,3.479-3.078,3.479H24.62v-6.847H25.979z M25.22,67.492v5.847
	h0.91c1.179,0,2.409-0.52,2.409-2.979c0-2.508-1.279-2.868-2.479-2.868H25.22z"/>
<path d="M35.508,73.839h-0.63l-0.6-1.869H31.4l-0.6,1.869h-0.61l2.289-6.847h0.75L35.508,73.839z M34.119,71.46l-1.27-3.978
	L31.56,71.46H34.119z"/>
<path d="M40.458,67.522h-2.009v6.316h-0.59v-6.316h-2.029v-0.53h4.697L40.458,67.522z"/>
<path d="M45.648,67.492H42.84v2.549h2.429v0.5H42.84v2.798h2.948v0.5H42.24v-6.847h3.478L45.648,67.492z"/>
<path d="M52.368,73.839h-0.79l-3.228-6.187c0.03,0.47,0.08,1.129,0.08,2.358v3.828h-0.57v-6.847h0.77l3.248,6.188
	c-0.02-0.29-0.08-1.14-0.08-2.029v-4.158h0.569V73.839z"/>
<path d="M59.458,73.839h-0.63l-0.6-1.869H55.35l-0.6,1.869h-0.61l2.289-6.847h0.75L59.458,73.839z M58.069,71.46l-1.27-3.978
	L55.51,71.46H58.069z"/>
<path d="M65.748,73.839h-0.79l-3.228-6.187c0.03,0.47,0.08,1.129,0.08,2.358v3.828h-0.57v-6.847h0.77l3.248,6.188
	c-0.02-0.29-0.08-1.14-0.08-2.029v-4.158h0.569V73.839z"/>
<path d="M72.838,73.839h-0.63l-0.6-1.869H68.73l-0.6,1.869h-0.61l2.289-6.847h0.75L72.838,73.839z M71.449,71.46l-1.27-3.978
	L68.89,71.46H71.449z"/>
<path d="M75.22,73.299h2.858l-0.08,0.54H74.62v-6.847h0.6V73.299z"/>
<path d="M80.669,71.16v2.679h-0.6V71.17l-2.189-4.178h0.67l1.839,3.648l1.809-3.648h0.64L80.669,71.16z"/>
<path d="M87.719,67.643l-0.36,0.39c-0.5-0.45-0.959-0.64-1.589-0.64c-0.839,0-1.419,0.439-1.419,1.159c0,0.699,0.37,1.02,1.599,1.39
	c1.229,0.38,1.979,0.819,1.979,2.028c0,1.17-0.889,1.979-2.269,1.979c-0.939,0-1.629-0.33-2.189-0.86l0.36-0.39
	c0.48,0.45,1.02,0.74,1.819,0.74c0.959,0,1.669-0.53,1.669-1.449c0-0.83-0.41-1.17-1.629-1.55c-1.359-0.42-1.949-0.89-1.949-1.879
	c0-0.969,0.81-1.679,2.009-1.679C86.639,66.883,87.179,67.162,87.719,67.643z"/>
<path d="M93.488,67.492H90.68v2.549h2.429v0.5H90.68v2.798h2.948v0.5H90.08v-6.847h3.478L93.488,67.492z"/>
<path d="M104.887,73.839h-0.58l-0.31-3.278c-0.11-1.1-0.22-2.358-0.26-2.988l-1.719,5.457h-0.57l-1.779-5.457
	c-0.03,0.68-0.14,1.919-0.23,2.969l-0.3,3.298h-0.57l0.65-6.847h0.83l1.699,5.338l1.639-5.338h0.84L104.887,73.839z"/>
<path d="M107.87,73.839h-0.6v-6.847h0.6V73.839z"/>
<path d="M114.258,67.522h-2.009v6.316h-0.59v-6.316h-2.029v-0.53h4.697L114.258,67.522z"/>
<path d="M119.929,73.839h-0.6v-6.847h1.609c1.589,0,2.529,0.63,2.529,2.05c0,1.539-1.069,2.128-2.559,2.128h-0.979V73.839z
	 M120.909,70.681c1.14,0,1.929-0.37,1.929-1.629c0-1.159-0.71-1.569-1.909-1.569h-1v3.198H120.909z"/>
<path d="M127.188,66.992c1.649,0,2.438,0.65,2.438,1.859c0,1.02-0.56,1.56-1.529,1.809l1.879,3.179h-0.72l-1.759-3.068h-1.369v3.068
	h-0.6v-6.847H127.188z M127.269,70.281c1.089,0,1.719-0.431,1.719-1.43c0-0.909-0.51-1.369-1.819-1.369h-1.04v2.799H127.269z"/>
<path d="M136.297,73.839h-0.63l-0.6-1.869h-2.878l-0.6,1.869h-0.61l2.289-6.847h0.75L136.297,73.839z M133.099,65.563
	c0,0.22-0.17,0.39-0.4,0.39s-0.4-0.17-0.4-0.39s0.17-0.399,0.4-0.399S133.099,65.344,133.099,65.563z M134.908,71.46l-1.27-3.978
	l-1.289,3.978H134.908z M134.987,65.563c0,0.22-0.17,0.39-0.399,0.39c-0.23,0-0.4-0.17-0.4-0.39s0.17-0.399,0.4-0.399
	C134.817,65.164,134.987,65.344,134.987,65.563z"/>
<path d="M141.647,67.482l-3.638,5.827h3.578l-0.08,0.529h-4.188v-0.5l3.668-5.826h-3.288v-0.521h3.948V67.482z"/>
<path d="M144.338,73.839h-0.6v-6.847h0.6V73.839z"/>
<path d="M150.587,67.643l-0.36,0.39c-0.5-0.45-0.959-0.64-1.589-0.64c-0.839,0-1.419,0.439-1.419,1.159
	c0,0.699,0.37,1.02,1.599,1.39c1.229,0.38,1.979,0.819,1.979,2.028c0,1.17-0.889,1.979-2.269,1.979c-0.939,0-1.629-0.33-2.189-0.86
	l0.36-0.39c0.48,0.45,1.02,0.74,1.819,0.74c0.959,0,1.669-0.53,1.669-1.449c0-0.83-0.41-1.17-1.629-1.55
	c-1.359-0.42-1.949-0.89-1.949-1.879c0-0.969,0.81-1.679,2.009-1.679C149.507,66.883,150.047,67.162,150.587,67.643z"/>
<path d="M153.548,73.839h-0.6v-6.847h0.6V73.839z"/>
<path d="M161.405,70.421c0,2.249-1.1,3.528-2.798,3.528c-1.649,0-2.789-1.239-2.789-3.519c0-2.259,1.149-3.548,2.789-3.548
	C160.276,66.883,161.405,68.112,161.405,70.421z M156.448,70.431c0,2.049,0.89,3.009,2.159,3.009c1.339,0,2.168-0.96,2.168-3.019
	c0-2.079-0.849-3.028-2.168-3.028C157.317,67.393,156.448,68.352,156.448,70.431z"/>
<path d="M168.186,73.839h-0.79l-3.228-6.187c0.03,0.47,0.08,1.129,0.08,2.358v3.828h-0.57v-6.847h0.77l3.248,6.188
	c-0.02-0.29-0.08-1.14-0.08-2.029v-4.158h0.569V73.839z"/>
<path d="M171.308,73.469c0,0.271-0.19,0.48-0.48,0.48c-0.27,0-0.479-0.21-0.479-0.48c0-0.26,0.21-0.47,0.479-0.47
	C171.118,72.999,171.308,73.209,171.308,73.469z"/>
<polygon fill="#231F20" points="16.078,5.065 6.499,5.065 0,52.43 9.715,52.43 12.328,33.536 26.13,33.536 27.068,26.367 
	13.333,26.367 15.142,13.234 15.137,13.247 "/>
<path fill="#E70E48" d="M16.078,5.065l-0.941,8.181l0.005-0.012c0,0,12.805-0.146,15.895-0.727
	c8.417-1.583,10.917-7.442,10.917-7.442H16.078z"/>
</svg>
